<?xml version="1.0" encoding="UTF-8"?>
<svg width="1240.3" height="163.17" version="1.1" viewBox="0 0 1240.3001 163.17356" xmlns="http://www.w3.org/2000/svg" xmlns:cc="http://creativecommons.org/ns#" xmlns:dc="http://purl.org/dc/elements/1.1/" xmlns:rdf="http://www.w3.org/1999/02/22-rdf-syntax-ns#">
<metadata>
<rdf:RDF>
<cc:Work rdf:about="">
<dc:format>image/svg+xml</dc:format>
<dc:type rdf:resource="http://purl.org/dc/dcmitype/StillImage"/>
<dc:title/>
</cc:Work>
</rdf:RDF>
</metadata>
<g transform="translate(820.39 21.594)" fill="#fff" stroke="#fff">
<g transform="matrix(.8122 0 0 .8122 -859.6 -232.39)">
<path d="m379.22 447.34s-17.101-56.603 0-56.561c19.213 0.10582 0 56.561 0 56.561z" stroke-linejoin="round" stroke-miterlimit="0" stroke-width="10"/>
<path d="m419.28 403.8c-2.7886 1.6648-8.0028 4.345-11.587 5.956l-6.5168 2.929-0.98532-11.443c-2.7222-31.615-39.099-31.778-41.819-0.18716-0.93259 10.831-1.1941 11.188-6.9223 9.4537-3.2742-0.99135-10.034-4.7813-15.023-8.4221-8.7013-6.3508-9.2148-8.1865-12.645-45.204-2.3636-25.507-5.1132-39.484-8.1128-41.24-3.2724-1.9157-3.4198-4.9701-0.52885-10.955 19.424-40.214 83.65-49.421 115.51-16.558 15.172 15.651 17.702 21.715 12.005 28.771-2.9691 3.6778-6.3744 20.531-8.5696 42.413-2.0035 19.971-5.0128 37.469-6.6872 38.885-1.6744 1.4162-5.326 3.937-8.1147 5.6018z"/>
<g transform="translate(.52791 -1.2551)" stroke-width="7.5">
<g transform="translate(1.257)">
<path d="m54.133 273.18c18.37-0.50677 170.39 13.223 196.27 17.727 29.925 5.2071 53.409 16.788 49.348 24.336-1.3098 2.4344-21.841 0.70122-45.625-3.8515-23.784-4.5527-76.076-13.868-116.2-20.702-79.557-13.547-96.8-17.15-83.792-17.509z"/>
<path d="m97.367 321.1c15.954-0.44013 147.98 11.484 170.46 15.395 25.989 4.5223 46.385 14.58 42.858 21.135-1.1376 2.1142-18.968 0.609-39.624-3.3449-20.656-3.9539-66.071-12.045-100.92-17.979-69.094-11.765-84.069-14.895-72.772-15.206z"/>
<path d="m143.79 366.1c12.763-0.3521 118.39 9.1873 136.37 12.316 20.792 3.6178 37.108 11.664 34.286 16.908-0.91008 1.6914-15.175 0.48723-31.699-2.6759-16.525-3.1631-52.856-9.6356-80.737-14.383-55.275-9.4124-67.255-11.916-58.217-12.165z"/>
</g>
<g transform="matrix(-1 0 0 1 756.23 0)">
<path d="m54.133 273.18c18.37-0.50677 170.39 13.223 196.27 17.727 29.925 5.2071 53.409 16.788 49.348 24.336-1.3098 2.4344-21.841 0.70122-45.625-3.8515-23.784-4.5527-76.076-13.868-116.2-20.702-79.557-13.547-96.8-17.15-83.792-17.509z"/>
<path d="m97.367 321.1c15.954-0.44013 147.98 11.484 170.46 15.395 25.989 4.5223 46.385 14.58 42.858 21.135-1.1376 2.1142-18.968 0.609-39.624-3.3449-20.656-3.9539-66.071-12.045-100.92-17.979-69.094-11.765-84.069-14.895-72.772-15.206z"/>
<path d="m143.79 366.1c12.763-0.3521 118.39 9.1873 136.37 12.316 20.792 3.6178 37.108 11.664 34.286 16.908-0.91008 1.6914-15.175 0.48723-31.699-2.6759-16.525-3.1631-52.856-9.6356-80.737-14.383-55.275-9.4124-67.255-11.916-58.217-12.165z"/>
</g>
</g>
</g>
<g transform="matrix(1.0006 0 0 .99942 -312.66 -188.71)" stroke-width="1.026px">
<path d="m121.99 184.18v-0.32833c0-8.5366-6.977-15.514-15.514-15.514h-23.312c-8.5366 0-15.432 6.977-15.432 15.514v0.32833c0 3.2833 0.985 6.3204 2.7087 8.7829 0.57458 0.90291 1.2312 1.7237 1.97 2.4625 2.7908 2.7087 6.5666 4.3504 10.753 4.3504h20.685c4.3504 0 7.962 3.5296 7.962 7.88s-3.6116 7.88-7.962 7.88h-17.976c-4.3504 0-7.88-3.5296-7.88-7.88h-10.26c0 10.014 8.1262 18.14 18.14 18.14h17.976c10.014 0 18.14-8.1262 18.14-18.14 0-4.3504-1.5596-8.3724-4.1041-11.492-0.24625-0.24625-0.41041-0.4925-0.65666-0.73875-3.2833-3.6116-8.0441-5.91-13.38-5.91h-20.685c-2.8729 0-5.2533-2.3804-5.2533-5.2533v-0.32833c0-2.8729 2.3804-5.2533 5.2533-5.2533h23.312c2.8729 0 5.2533 2.3804 5.2533 5.2533v0.32833l10.26-0.0821z"/>
<path d="m168.49 168.42v10.26h23.558v47.198h10.26v-47.198h23.558v-10.26h-57.376z"/>
<path d="m290.78 178.6h41.944v-10.26h-41.944c-8.5366 0-15.432 6.977-15.432 15.514v26.431c0 8.5366 6.895 15.514 15.432 15.514h41.944v-10.26h-41.944c-2.8729 0-5.2533-2.3804-5.2533-5.2533v-10.835h36.937v-10.26h-36.937v-5.3354c0-2.8729 2.3804-5.2533 5.2533-5.2533z"/>
<path d="m399.28 215.54c-3.6116-0.49249-6.4846-3.3654-6.977-6.977v-40.139h-10.26v39.154c0 2.8729 0.65666 5.5816 1.8879 8.0441 1.7237 3.6116 4.6787 6.5666 8.2904 8.3724 2.4625 1.2312 5.1712 1.8879 8.0441 1.8879h29.139v-10.26l-30.124-0.0821z"/>
<path d="m495.95 215.54c-3.6116-0.49249-6.4845-3.3654-6.977-6.977v-40.139h-10.26v39.154c0 2.8729 0.65666 5.5816 1.8879 8.0441 1.7237 3.6116 4.6787 6.5666 8.2904 8.3724 2.4625 1.2312 5.1712 1.8879 8.0441 1.8879h29.139v-10.26l-30.124-0.0821z"/>
<path d="m625.53 215.54-24.05-47.198-24.05 47.198-5.2533 10.26h11.492l5.2533-10.26 12.559-24.625 12.559 24.625 5.2533 10.26h11.492l-5.2533-10.26z"/>
<path d="m714.87 199.29c1.5596-0.16417 3.0371-0.57458 4.4325-1.2312 5.3354-2.4625 9.0291-7.88 9.0291-14.118 0-4.2683-1.7237-8.1262-4.5146-10.999-2.7908-2.7908-6.6487-4.5146-10.917-4.5146h-36.281v57.458h10.26v-26.431h10.26c3.6937 0 6.895 1.97 8.7008 4.925l0.24625 0.4925 5.4996 10.753 5.2533 10.26h11.492l-5.2533-10.26-8.2083-16.334zm-27.99-10.014v-10.589h26.02c1.8058 0 3.0371 0.82083 3.6937 1.4775 0.57458 0.57458 1.5596 1.8879 1.5596 3.7758 0 2.0521-1.2312 3.94-3.1191 4.7608-0.65667 0.32833-1.3954 0.49249-2.1342 0.49249l-26.02 0.0821z"/>
</g>
<g transform="matrix(1.0077 0 0 .99659 -312.65 -188.63)" stroke-width="5.1424">
<path d="m84.078 325.68v-80.994h-14.463v80.994h14.463z"/>
<path d="m172.42 244.69v51.604l-52.067-40.15-14.463-11.108v80.762h14.463v-51.257l52.067 40.15 14.463 11.108v-80.994l-14.463-0.1157z"/>
<path d="m270.61 244.69-7.4051 14.463-17.703 34.712-17.703-34.712-7.4051-14.463h-16.199l7.4051 14.463 33.902 66.53 33.902-66.53 7.4051-14.463h-16.199z"/>
<path d="m318.55 325.68v-80.994h-14.463v80.994h14.463z"/>
<path d="m379.7 259.15h40.497v-14.463h-40.497c-22.331 0-40.497 18.166-40.497 40.497 0 22.331 18.166 40.497 40.497 40.497h40.497v-14.463h-40.497c-14.347 0-26.034-11.686-26.034-26.034s11.686-26.034 26.034-26.034z"/>
<path d="m441.94 244.8v14.463h33.207v66.53h14.463v-66.53h33.207v-14.463h-80.878z"/>
<path d="m611.41 244.69v40.497c0 14.347-11.686 26.034-26.034 26.034s-26.034-11.686-26.034-26.034v-40.497h-14.463v40.497c0 22.331 18.166 40.497 40.497 40.497 22.331 0 40.497-18.166 40.497-40.497v-40.497h-14.463z"/>
<path d="m724.42 267.02v-0.46282c0-12.033-9.8349-21.868-21.868-21.868h-32.86c-12.033 0-21.753 9.8349-21.753 21.868v0.46282c0 4.6282 1.3885 8.9093 3.8183 12.38 0.80993 1.2728 1.7356 2.4298 2.7769 3.4712 3.934 3.8183 9.2564 6.1324 15.157 6.1324h29.158c6.1324 0 11.223 4.9753 11.223 11.108 0 6.1324-5.091 11.108-11.223 11.108h-25.339c-6.1324 0-11.108-4.9753-11.108-11.108h-14.463c0 14.116 11.455 25.571 25.571 25.571h25.339c14.116 0 25.571-11.455 25.571-25.571 0-6.1324-2.1984-11.802-5.7852-16.199-0.34711-0.34711-0.57852-0.69423-0.92564-1.0413-4.6282-5.091-11.339-8.3308-18.86-8.3308h-29.158c-4.0497 0-7.4051-3.3554-7.4051-7.4051v-0.46282c0-4.0497 3.3554-7.4051 7.4051-7.4051h32.86c4.0497 0 7.4051 3.3554 7.4051 7.4051v0.46282l14.463-0.11571z"/>
</g>
</g>
</svg>
