<?xml version="1.0" encoding="UTF-8"?>
<svg width="1240.2" height="167.7" version="1.1" viewBox="0 0 1240.2269 167.70367" xmlns="http://www.w3.org/2000/svg" xmlns:cc="http://creativecommons.org/ns#" xmlns:dc="http://purl.org/dc/elements/1.1/" xmlns:rdf="http://www.w3.org/1999/02/22-rdf-syntax-ns#">
<metadata>
<rdf:RDF>
<cc:Work rdf:about="">
<dc:format>image/svg+xml</dc:format>
<dc:type rdf:resource="http://purl.org/dc/dcmitype/StillImage"/>
<dc:title/>
</cc:Work>
</rdf:RDF>
</metadata>
<g transform="matrix(.8122 0 0 .8122 -39.684 -206.25)" fill="#fff" stroke="#fff">
<g transform="translate(.52791 -1.2551)" stroke-width="7.5"></g>
</g>
<path d="m1237.3 103.62v-0.46124c0-11.992-9.9106-21.793-22.036-21.793h-33.113c-12.126 0-21.92 9.8014-21.92 21.793v0.46124c0 4.6124 1.3992 8.8789 3.8477 12.338 0.8162 1.2685 1.749 2.4215 2.7983 3.4594 3.9643 3.8053 9.3277 6.1115 15.274 6.1115h29.382c6.1797 0 11.31 4.9583 11.31 11.07 0 6.1115-5.1302 11.07-11.31 11.07h-25.534c-6.1796 0-11.194-4.9583-11.194-11.07h-14.574c0 14.068 11.543 25.484 25.768 25.484h25.534c14.225 0 25.768-11.416 25.768-25.484 0-6.1115-2.2153-11.762-5.8297-16.144-0.3498-0.34593-0.583-0.69186-0.9328-1.0378-4.6638-5.0736-11.426-8.3024-19.005-8.3024h-29.382c-4.0809 0-7.4621-3.344-7.4621-7.3799v-0.46124c0-4.0359 3.3812-7.3798 7.4621-7.3798h33.113c4.0809 0 7.4621 3.344 7.4621 7.3798v0.46124l14.574-0.11531zm-113.88-22.254v40.359c0 14.298-11.776 25.945-26.234 25.945s-26.234-11.646-26.234-25.945v-40.359h-14.574v40.359c0 22.255 18.306 40.359 40.809 40.359 22.503 0 40.809-18.104 40.809-40.359v-40.359h-14.574zm-170.77 0.10962v14.414h33.463v66.303h14.574v-66.303h33.463v-14.414h-81.501zm-62.719 14.301h40.809v-14.414h-40.809c-22.503 0-40.809 18.104-40.809 40.359 0 22.255 18.306 40.359 40.809 40.359h40.809v-14.414h-40.809c-14.457 0-26.234-11.646-26.234-25.945 0-14.299 11.776-25.945 26.234-25.945zm-61.621 66.303v-80.718h-14.574v80.718h14.574zm-48.309-80.714-7.4621 14.414-17.839 34.594-17.839-34.594-7.4621-14.414h-16.324l7.4621 14.414 34.163 66.303 34.163-66.303 7.4621-14.414h-16.324zm-98.946 0v51.428l-52.468-40.013-14.574-11.07v80.487h14.574v-51.082l52.468 40.013 14.574 11.07v-80.718l-14.574-0.11531zm-89.022 80.714v-80.718h-14.574v80.718h14.574zm630.56-125.48c1.5606-0.16408 3.0389-0.57424 4.4352-1.2305 5.3386-2.4611 9.0345-7.8754 9.0345-14.11 0-4.2658-1.7247-8.1215-4.5173-10.993-2.7925-2.7892-6.6527-4.512-10.924-4.512h-36.303v57.425h10.266v-26.416h10.266c3.6959 0 6.8991 1.9689 8.706 4.9221l0.2464 0.49222 5.5029 10.747 5.2565 10.254h11.499l-5.2564-10.254-8.2132-16.325zm-28.007-10.008v-10.583h26.036c1.8069 0 3.039 0.82035 3.696 1.4766 0.5749 0.57424 1.5605 1.8868 1.5605 3.7736 0 2.0509-1.232 3.9377-3.121 4.758-0.657 0.32814-1.3962 0.49221-2.1355 0.49221l-26.036 0.08202zm-61.387 26.249-24.064-47.171-24.064 47.171l-5.2565 10.254h11.499l5.2565-10.254 12.566-24.611 12.566 24.611 5.2565 10.254h11.499l-5.2565-10.254zm-129.66 0c-3.6138-0.49221-6.4884-3.3635-6.9812-6.973v-40.116h-10.266v39.131c0 2.8712 0.65705 5.5784 1.889 8.0394 1.7247 3.6095 4.6815 6.5628 8.2954 8.3675 2.464 1.2305 5.1743 1.8868 8.049 1.8868h29.156v-10.254l-30.142-0.08202zm-96.728 0c-3.6138-0.49221-6.4885-3.3635-6.9812-6.973v-40.116h-10.266v39.131c0 2.8712 0.65705 5.5784 1.889 8.0394 1.7247 3.6095 4.6815 6.5628 8.2954 8.3675 2.464 1.2305 5.1743 1.8868 8.0489 1.8868h29.156v-10.254l-30.142-0.08202zm-108.57-36.919h41.969v-10.254h-41.969c-8.5417 0-15.441 6.973-15.441 15.505v26.416c0 8.5316 6.8991 15.505 15.441 15.505h41.969v-10.254h-41.969c-2.8746 0-5.2564-2.379-5.2564-5.2503v-10.829h36.959v-10.254h-36.959v-5.3323c0-2.8712 2.3818-5.2503 5.2564-5.2503zm-122.36-10.174v10.254h23.572v47.171h10.266v-47.171h23.572v-10.254h-57.41zm-46.528 15.751v-0.32814c0-8.5316-6.9812-15.505-15.523-15.505h-23.326c-8.5417 0-15.441 6.973-15.441 15.505v0.32814c0 3.2814 0.98559 6.3167 2.7103 8.7778 0.57493 0.90238 1.2319 1.7227 1.9712 2.4611 2.7925 2.7071 6.5705 4.3479 10.759 4.3479h20.697c4.353 0 7.9668 3.5276 7.9668 7.8754 0 4.3479-3.6138 7.8754-7.9668 7.8754h-17.987c-4.353 0-7.8847-3.5276-7.8847-7.8754h-10.266c0 10.008 8.1311 18.129 18.151 18.129h17.987c10.02 0 18.151-8.1215 18.151-18.129 0-4.3479-1.5605-8.3675-4.1066-11.485-0.24639-0.24611-0.41066-0.49222-0.65705-0.73832-3.2853-3.6095-8.0489-5.9066-13.388-5.9066h-20.697c-2.8746 0-5.2564-2.379-5.2564-5.2503v-0.32814c0-2.8712 2.3818-5.2503 5.2564-5.2503h23.326c2.8746 0 5.2565 2.379 5.2565 5.2503v0.32814l10.266-0.08202zm-171.15 68.574c-10.366-0.28598-96.156 7.4619-110.76 10.003-16.887 2.9384-30.139 9.4735-27.847 13.733 0.73917 1.3738 12.325 0.39573 25.746-2.1734 13.422-2.5691 42.93-7.826 65.575-11.682 44.894-7.6448 54.625-9.6782 47.284-9.8804zm37.705-36.549c-12.958-0.35748-120.19 9.3273-138.45 12.504-21.108 3.673-37.674 11.842-34.809 17.166 0.92395 1.7171 15.406 0.49463 32.183-2.7167 16.777-3.2114 53.663-9.7829 81.967-14.603 56.118-9.5555 68.281-12.098 59.105-12.35zm35.115-38.921c-14.92-0.41159-138.39 10.74-159.41 14.398-24.305 4.2292-43.379 13.635-40.08 19.766 1.0638 1.9772 17.739 0.56953 37.057-3.1282 19.317-3.6977 61.789-11.264 94.378-16.814 64.616-11.003 78.621-13.929 68.056-14.221zm-452.44 75.47c10.366-0.28598 96.156 7.4619 110.76 10.003 16.887 2.9384 30.139 9.4735 27.847 13.733-0.73916 1.3738-12.325 0.39573-25.746-2.1734-13.422-2.5691-42.93-7.826-65.575-11.682-44.894-7.6448-54.625-9.6782-47.284-9.8804zm-37.705-36.549c12.958-0.35748 120.19 9.3273 138.45 12.504 21.108 3.673 37.674 11.842 34.809 17.166-0.92396 1.7171-15.406 0.49463-32.183-2.7167-16.777-3.2114-53.663-9.7829-81.967-14.603-56.118-9.5555-68.281-12.098-59.105-12.35zm-35.115-38.921c14.92-0.41159 138.39 10.74 159.41 14.398 24.305 4.2292 43.379 13.635 40.08 19.766-1.0638 1.9772-17.739 0.56953-37.057-3.1282-19.317-3.6977-61.789-11.264-94.378-16.814-64.616-11.003-78.621-13.929-68.056-14.221zm295.12 107.11c-2.2649 1.3522-6.4999 3.529-9.411 4.8375l-5.2929 2.3789-0.80028-9.294c-2.211-25.678-31.756-25.81-33.965-0.15201-0.75745 8.7969-0.96984 9.0869-5.6223 7.6783-2.6593-0.80518-8.1496-3.8834-12.202-6.8404-7.0672-5.1581-7.4843-6.6491-10.27-36.715-1.9197-20.717-4.1529-32.069-6.5892-33.495-2.6578-1.5559-2.7776-4.0367-0.42953-8.8976 15.776-32.662 67.941-40.14 93.817-13.448 12.323 12.712 14.378 17.637 9.7504 23.368-2.4115 2.9871-5.1773 16.675-6.9602 34.448-1.6272 16.22-4.0714 30.432-5.4314 31.582-1.36 1.1502-4.3258 3.1976-6.5908 4.5498zm-32.537 35.363s-13.889-45.973 0-45.939c15.605 0.0859 0 45.939 0 45.939z" fill="#fff" stroke="#fff" stroke-width="5.1534"/>
</svg>
