<?xml version="1.0" encoding="UTF-8" standalone="no"?>
<!-- Created with Inkscape (http://www.inkscape.org/) -->

<svg
   xmlns:dc="http://purl.org/dc/elements/1.1/"
   xmlns:cc="http://creativecommons.org/ns#"
   xmlns:rdf="http://www.w3.org/1999/02/22-rdf-syntax-ns#"
   xmlns:svg="http://www.w3.org/2000/svg"
   xmlns="http://www.w3.org/2000/svg"
   xmlns:sodipodi="http://sodipodi.sourceforge.net/DTD/sodipodi-0.dtd"
   xmlns:inkscape="http://www.inkscape.org/namespaces/inkscape"
   width="2479.2405"
   height="184.68442"
   viewBox="0 0 2479.2403 184.68442"
   id="svg2"
   version="1.1"
   inkscape:version="0.91 r13725"
   sodipodi:docname="stellar logo10.svg"
   inkscape:export-filename="D:\Drive\stellar invictus\logos\stellar logo wide.png"
   inkscape:export-xdpi="24.853207"
   inkscape:export-ydpi="24.853207">
  <defs
     id="defs4" />
  <sodipodi:namedview
     id="base"
     pagecolor="#000000"
     bordercolor="#666666"
     borderopacity="1.0"
     inkscape:pageopacity="0"
     inkscape:pageshadow="2"
     inkscape:zoom="0.35"
     inkscape:cx="388.60149"
     inkscape:cy="340.2819"
     inkscape:document-units="px"
     inkscape:current-layer="layer1"
     showgrid="false"
     fit-margin-top="0"
     fit-margin-left="0"
     fit-margin-right="0"
     fit-margin-bottom="0"
     inkscape:window-width="1920"
     inkscape:window-height="1017"
     inkscape:window-x="-8"
     inkscape:window-y="-8"
     inkscape:window-maximized="1"
     units="px" />
  <metadata
     id="metadata7">
    <rdf:RDF>
      <cc:Work
         rdf:about="">
        <dc:format>image/svg+xml</dc:format>
        <dc:type
           rdf:resource="http://purl.org/dc/dcmitype/StillImage" />
        <dc:title></dc:title>
      </cc:Work>
    </rdf:RDF>
  </metadata>
  <g
     inkscape:label="Layer 1"
     inkscape:groupmode="layer"
     id="layer1"
     transform="translate(820.39373,32.343321)">
    <g
       id="g3350"
       transform="translate(18.996,-300)"
       style="fill:#ffffff;fill-opacity:1;stroke:#ffffff;stroke-opacity:1">
      <path
         sodipodi:nodetypes="aca"
         inkscape:connector-curvature="0"
         id="path3370"
         d="m 379.22156,447.34223 c 0,0 -17.10106,-56.60305 0,-56.56118 19.2131,0.10582 0,56.56118 0,56.56118 z"
         style="fill:#ffffff;fill-opacity:1;stroke:#ffffff;stroke-width:10;stroke-linejoin:round;stroke-miterlimit:0;stroke-dasharray:none;stroke-opacity:1" />
      <path
         inkscape:connector-curvature="0"
         id="path3368"
         d="m 419.28399,403.79722 c -2.78861,1.66484 -8.00276,4.34505 -11.587,5.95603 l -6.51681,2.92904 -0.98532,-11.44331 c -2.7222,-31.61536 -39.09897,-31.77816 -41.81908,-0.18716 -0.93259,10.83097 -1.19407,11.18807 -6.92234,9.45369 -3.27423,-0.99135 -10.03445,-4.78131 -15.02273,-8.42213 -8.70128,-6.35085 -9.21477,-8.18651 -12.64497,-45.20388 -2.36359,-25.50693 -5.11325,-39.48449 -8.11281,-41.24045 -3.27235,-1.91566 -3.4198,-4.97009 -0.52885,-10.95528 19.42391,-40.21368 83.64978,-49.42053 115.50638,-16.55796 15.17177,15.65086 17.70192,21.7146 12.00504,28.77122 -2.96913,3.67781 -6.37439,20.53126 -8.56964,42.41321 -2.0035,19.97069 -5.01275,37.46902 -6.68721,38.88518 -1.67445,1.41616 -5.32605,3.93697 -8.11466,5.6018 z"
         style="fill:#ffffff;fill-opacity:1;stroke:#ffffff;stroke-opacity:1" />
      <g
         transform="translate(0.5279146,-1.2550997)"
         id="g4196"
         style="fill:#ffffff;fill-opacity:1;stroke:#ffffff;stroke-opacity:1">
        <g
           id="g4183"
           transform="translate(1.2570058,0)"
           style="fill:#ffffff;fill-opacity:1;stroke:#ffffff;stroke-opacity:1">
          <path
             inkscape:connector-curvature="0"
             style="fill:#ffffff;fill-opacity:1;stroke:#ffffff;stroke-width:7.5;stroke-miterlimit:4;stroke-dasharray:none;stroke-opacity:1"
             d="m 54.132648,273.17698 c 18.37038,-0.50677 170.393202,13.22327 196.273242,17.72654 29.92505,5.2071 53.40883,16.78814 49.34778,24.33583 -1.30985,2.43437 -21.84093,0.70122 -45.62464,-3.85146 C 230.34529,306.83521 178.05324,297.51943 137.9245,290.68618 58.367938,277.13902 41.124508,273.53583 54.132648,273.17698 Z"
             id="path3489" />
          <path
             inkscape:connector-curvature="0"
             style="fill:#ffffff;fill-opacity:1;stroke:#ffffff;stroke-width:7.5;stroke-miterlimit:4;stroke-dasharray:none;stroke-opacity:1"
             d="m 97.36696,321.10181 c 15.95437,-0.44013 147.98361,11.48418 170.46,15.39519 25.98938,4.52229 46.38465,14.58022 42.85771,21.13526 -1.13759,2.11422 -18.96849,0.609 -39.62424,-3.34493 -20.65577,-3.95392 -66.07055,-12.04452 -100.92166,-17.97907 -69.09354,-11.76549 -84.069154,-14.89479 -72.77181,-15.20645 z"
             id="path3491" />
          <path
             inkscape:connector-curvature="0"
             style="fill:#ffffff;fill-opacity:1;stroke:#ffffff;stroke-width:7.5;stroke-miterlimit:4;stroke-dasharray:none;stroke-opacity:1"
             d="m 143.79389,366.09943 c 12.76349,-0.3521 118.38688,9.18734 136.36799,12.31616 20.79151,3.61782 37.10772,11.66417 34.28617,16.90819 -0.91008,1.69138 -15.1748,0.48723 -31.69939,-2.67594 -16.5246,-3.16313 -52.85645,-9.63561 -80.73733,-14.38326 -55.27483,-9.41238 -67.25532,-11.91582 -58.21744,-12.16515 z"
             id="path3493" />
        </g>
        <g
           transform="matrix(-1,0,0,1,756.23001,0)"
           id="g4188"
           style="fill:#ffffff;fill-opacity:1;stroke:#ffffff;stroke-opacity:1">
          <path
             id="path4190"
             d="m 54.132648,273.17698 c 18.37038,-0.50677 170.393202,13.22327 196.273242,17.72654 29.92505,5.2071 53.40883,16.78814 49.34778,24.33583 -1.30985,2.43437 -21.84093,0.70122 -45.62464,-3.85146 C 230.34529,306.83521 178.05324,297.51943 137.9245,290.68618 58.367938,277.13902 41.124508,273.53583 54.132648,273.17698 Z"
             style="fill:#ffffff;fill-opacity:1;stroke:#ffffff;stroke-width:7.5;stroke-miterlimit:4;stroke-dasharray:none;stroke-opacity:1"
             inkscape:connector-curvature="0" />
          <path
             id="path4192"
             d="m 97.36696,321.10181 c 15.95437,-0.44013 147.98361,11.48418 170.46,15.39519 25.98938,4.52229 46.38465,14.58022 42.85771,21.13526 -1.13759,2.11422 -18.96849,0.609 -39.62424,-3.34493 -20.65577,-3.95392 -66.07055,-12.04452 -100.92166,-17.97907 -69.09354,-11.76549 -84.069154,-14.89479 -72.77181,-15.20645 z"
             style="fill:#ffffff;fill-opacity:1;stroke:#ffffff;stroke-width:7.5;stroke-miterlimit:4;stroke-dasharray:none;stroke-opacity:1"
             inkscape:connector-curvature="0" />
          <path
             id="path4194"
             d="m 143.79389,366.09943 c 12.76349,-0.3521 118.38688,9.18734 136.36799,12.31616 20.79151,3.61782 37.10772,11.66417 34.28617,16.90819 -0.91008,1.69138 -15.1748,0.48723 -31.69939,-2.67594 -16.5246,-3.16313 -52.85645,-9.63561 -80.73733,-14.38326 -55.27483,-9.41238 -67.25532,-11.91582 -58.21744,-12.16515 z"
             style="fill:#ffffff;fill-opacity:1;stroke:#ffffff;stroke-width:7.5;stroke-miterlimit:4;stroke-dasharray:none;stroke-opacity:1"
             inkscape:connector-curvature="0" />
        </g>
      </g>
    </g>
    <g
       style="font-style:normal;font-weight:normal;font-size:112.5px;line-height:100%;font-family:sans-serif;letter-spacing:0.1px;word-spacing:0px;fill:#ffffff;fill-opacity:1;stroke:#ffffff;stroke-width:5;stroke-linecap:butt;stroke-linejoin:miter;stroke-miterlimit:4;stroke-dasharray:none;stroke-opacity:1"
       id="text4195">
      <path
         d="m -743.53126,42.280137 0,-0.45 c 0,-11.7 -9.5625,-21.2625 -21.2625,-21.2625 l -31.95,0 c -11.7,0 -21.15,9.5625 -21.15,21.2625 l 0,0.45 c 0,4.5 1.35,8.6625 3.7125,12.0375 0.7875,1.2375 1.6875,2.3625 2.7,3.375 3.825,3.7125 9,5.9625 14.7375,5.9625 l 28.35,0 c 5.9625,0 10.9125,4.8375 10.9125,10.8 0,5.9625 -4.95,10.8 -10.9125,10.8 l -24.6375,0 c -5.9625,0 -10.8,-4.8375 -10.8,-10.8 l -14.0625,0 c 0,13.725 11.1375,24.8625 24.8625,24.8625 l 24.6375,0 c 13.725,0 24.8625,-11.1375 24.8625,-24.8625 0,-5.9625 -2.1375,-11.475 -5.625,-15.75 -0.3375,-0.3375 -0.5625,-0.675 -0.9,-1.0125 -4.5,-4.95 -11.025,-8.1 -18.3375,-8.1 l -28.35,0 c -3.9375,0 -7.2,-3.2625 -7.2,-7.2 l 0,-0.45 c 0,-3.9375 3.2625,-7.2 7.2,-7.2 l 31.95,0 c 3.9375,0 7.2,3.2625 7.2,7.2 l 0,0.45 14.0625,-0.1125 z"
         style="font-style:normal;font-variant:normal;font-weight:normal;font-stretch:normal;font-size:112.5px;line-height:100%;font-family:Azonix;-inkscape-font-specification:Azonix;text-align:center;letter-spacing:30px;text-anchor:middle;fill:#ffffff;fill-opacity:1;stroke:#ffffff;stroke-width:5;stroke-miterlimit:4;stroke-dasharray:none;stroke-opacity:1"
         id="path4149" />
      <path
         d="m -686.04825,20.680137 0,14.0625 32.2875,0 0,64.6875 14.0625,0 0,-64.6875 32.2875,0 0,-14.0625 -78.6375,0 z"
         style="font-style:normal;font-variant:normal;font-weight:normal;font-stretch:normal;font-size:112.5px;line-height:100%;font-family:Azonix;-inkscape-font-specification:Azonix;text-align:center;letter-spacing:50px;text-anchor:middle;fill:#ffffff;fill-opacity:1;stroke:#ffffff;stroke-width:5;stroke-miterlimit:4;stroke-dasharray:none;stroke-opacity:1"
         id="path4151" />
      <path
         d="m -524.69786,34.630137 57.4875,0 0,-14.0625 -57.4875,0 c -11.7,0 -21.15,9.5625 -21.15,21.2625 l 0,36.225 c 0,11.7 9.45,21.2625 21.15,21.2625 l 57.4875,0 0,-14.0625 -57.4875,0 c -3.9375,0 -7.2,-3.2625 -7.2,-7.2 l 0,-14.85 50.625,0 0,-14.0625 -50.625,0 0,-7.3125 c 0,-3.9375 3.2625,-7.2 7.2,-7.2 z"
         style="font-style:normal;font-variant:normal;font-weight:normal;font-stretch:normal;font-size:112.5px;line-height:100%;font-family:Azonix;-inkscape-font-specification:Azonix;text-align:center;letter-spacing:50px;text-anchor:middle;fill:#ffffff;fill-opacity:1;stroke:#ffffff;stroke-width:5;stroke-miterlimit:4;stroke-dasharray:none;stroke-opacity:1"
         id="path4153" />
      <path
         d="m -382.24747,85.255137 c -4.95,-0.675 -8.8875,-4.6125 -9.5625,-9.5625 l 0,-55.0125 -14.0625,0 0,53.6625 c 0,3.9375 0.9,7.65 2.5875,11.025 2.3625,4.95 6.4125,9 11.3625,11.475 3.375,1.6875 7.0875,2.5875 11.025,2.5875 l 39.9375,0 0,-14.0625 -41.2875,-0.1125 z"
         style="font-style:normal;font-variant:normal;font-weight:normal;font-stretch:normal;font-size:112.5px;line-height:100%;font-family:Azonix;-inkscape-font-specification:Azonix;text-align:center;letter-spacing:50px;text-anchor:middle;fill:#ffffff;fill-opacity:1;stroke:#ffffff;stroke-width:5;stroke-miterlimit:4;stroke-dasharray:none;stroke-opacity:1"
         id="path4155" />
      <path
         d="m -256.00235,85.255137 c -4.95,-0.675 -8.8875,-4.6125 -9.5625,-9.5625 l 0,-55.0125 -14.0625,0 0,53.6625 c 0,3.9375 0.9,7.65 2.5875,11.025 2.3625,4.95 6.4125,9 11.3625,11.475 3.375,1.6875 7.0875,2.5875 11.025,2.5875 l 39.9375,0 0,-14.0625 -41.2875,-0.1125 z"
         style="font-style:normal;font-variant:normal;font-weight:normal;font-stretch:normal;font-size:112.5px;line-height:100%;font-family:Azonix;-inkscape-font-specification:Azonix;text-align:center;letter-spacing:50px;text-anchor:middle;fill:#ffffff;fill-opacity:1;stroke:#ffffff;stroke-width:5;stroke-miterlimit:4;stroke-dasharray:none;stroke-opacity:1"
         id="path4157" />
      <path
         d="m -84.644733,85.255137 -32.962497,-64.6875 -32.9625,64.6875 -7.2,14.0625 15.75,0 7.2,-14.0625 17.2125,-33.75 17.2125,33.75 7.199997,14.0625 15.75,0 -7.2,-14.0625 z"
         style="font-style:normal;font-variant:normal;font-weight:normal;font-stretch:normal;font-size:112.5px;line-height:100%;font-family:Azonix;-inkscape-font-specification:Azonix;text-align:center;letter-spacing:50px;text-anchor:middle;fill:#ffffff;fill-opacity:1;stroke:#ffffff;stroke-width:5;stroke-miterlimit:4;stroke-dasharray:none;stroke-opacity:1"
         id="path4159" />
      <path
         d="m 31.547455,62.980137 c 0,0 0,0 0,0 2.1375,-0.225 4.1625,-0.7875 6.075,-1.6875 7.3125,-3.375 12.375,-10.8 12.375,-19.35 0,-5.85 -2.3625,-11.1375 -6.1875,-15.075 -3.825,-3.825 -9.1125,-6.1875 -14.9625,-6.1875 l -49.725,0 0,78.75 14.0624998,0 0,-36.225 14.0625,0 c 5.0625002,0 9.4500002,2.7 11.9250002,6.75 l 0.3375,0.675 7.5375,14.7375 7.2,14.0625 15.75,0 -7.2,-14.0625 -11.25,-22.3875 z m -38.3625002,-13.725 0,-14.5125 35.6625002,0 c 2.475,0 4.1625,1.125 5.0625,2.025 0.7875,0.7875 2.1375,2.5875 2.1375,5.175 0,2.8125 -1.6875,5.4 -4.275,6.525 -0.9,0.45 -1.9125,0.675 -2.925,0.675 l -35.6625002,0.1125 z"
         style="font-style:normal;font-variant:normal;font-weight:normal;font-stretch:normal;font-size:112.5px;line-height:100%;font-family:Azonix;-inkscape-font-specification:Azonix;text-align:center;letter-spacing:50px;text-anchor:middle;fill:#ffffff;fill-opacity:1;stroke:#ffffff;stroke-width:5;stroke-miterlimit:4;stroke-dasharray:none;stroke-opacity:1"
         id="path4161" />
      <path
         d="m 753.74667,99.317637 0,-78.75 -14.0625,0 0,78.75 14.0625,0 z"
         style="font-style:normal;font-variant:normal;font-weight:normal;font-stretch:normal;font-size:112.5px;line-height:100%;font-family:Azonix;-inkscape-font-specification:Azonix;text-align:center;letter-spacing:50px;text-anchor:middle;fill:#ffffff;fill-opacity:1;stroke:#ffffff;stroke-width:5;stroke-miterlimit:4;stroke-dasharray:none;stroke-opacity:1"
         id="path4163" />
      <path
         d="m 879.64023,20.567637 0,50.175 -50.625,-39.0375 -14.0625,-10.8 0,78.525 14.0625,0 0,-49.8375 50.625,39.0375 14.0625,10.8 0,-78.75 -14.0625,-0.1125 z"
         style="font-style:normal;font-variant:normal;font-weight:normal;font-stretch:normal;font-size:112.5px;line-height:100%;font-family:Azonix;-inkscape-font-specification:Azonix;text-align:center;letter-spacing:50px;text-anchor:middle;fill:#ffffff;fill-opacity:1;stroke:#ffffff;stroke-width:5;stroke-miterlimit:4;stroke-dasharray:none;stroke-opacity:1"
         id="path4165" />
      <path
         d="m 1015.1156,20.567637 -7.2,14.0625 -17.21248,33.75 -17.2125,-33.75 -7.2,-14.0625 -15.75,0 7.2,14.0625 32.9625,64.6875 32.96248,-64.6875 7.2,-14.0625 -15.75,0 z"
         style="font-style:normal;font-variant:normal;font-weight:normal;font-stretch:normal;font-size:112.5px;line-height:100%;font-family:Azonix;-inkscape-font-specification:Azonix;text-align:center;letter-spacing:50px;text-anchor:middle;fill:#ffffff;fill-opacity:1;stroke:#ffffff;stroke-width:5;stroke-miterlimit:4;stroke-dasharray:none;stroke-opacity:1"
         id="path4167" />
      <path
         d="m 1101.7203,99.317637 0,-78.75 -14.0625,0 0,78.75 14.0625,0 z"
         style="font-style:normal;font-variant:normal;font-weight:normal;font-stretch:normal;font-size:112.5px;line-height:100%;font-family:Azonix;-inkscape-font-specification:Azonix;text-align:center;letter-spacing:50px;text-anchor:middle;fill:#ffffff;fill-opacity:1;stroke:#ffffff;stroke-width:5;stroke-miterlimit:4;stroke-dasharray:none;stroke-opacity:1"
         id="path4169" />
      <path
         d="m 1201.1764,34.630137 39.375,0 0,-14.0625 -39.375,0 c -21.7125,0 -39.375,17.6625 -39.375,39.375 0,21.7125 17.6625,39.375 39.375,39.375 l 39.375,0 0,-14.0625 -39.375,0 c -13.95,0 -25.3125,-11.3625 -25.3125,-25.3125 0,-13.95 11.3625,-25.3125 25.3125,-25.3125 z"
         style="font-style:normal;font-variant:normal;font-weight:normal;font-stretch:normal;font-size:112.5px;line-height:100%;font-family:Azonix;-inkscape-font-specification:Azonix;text-align:center;letter-spacing:50px;text-anchor:middle;fill:#ffffff;fill-opacity:1;stroke:#ffffff;stroke-width:5;stroke-miterlimit:4;stroke-dasharray:none;stroke-opacity:1"
         id="path4171" />
      <path
         d="m 1301.6959,20.680137 0,14.0625 32.2875,0 0,64.6875 14.0625,0 0,-64.6875 32.2875,0 0,-14.0625 -78.6375,0 z"
         style="font-style:normal;font-variant:normal;font-weight:normal;font-stretch:normal;font-size:112.5px;line-height:100%;font-family:Azonix;-inkscape-font-specification:Azonix;text-align:center;letter-spacing:50px;text-anchor:middle;fill:#ffffff;fill-opacity:1;stroke:#ffffff;stroke-width:5;stroke-miterlimit:4;stroke-dasharray:none;stroke-opacity:1"
         id="path4173" />
      <path
         d="m 1506.4713,20.567637 0,39.375 c 0,13.95 -11.3625,25.3125 -25.3125,25.3125 -13.95,0 -25.3125,-11.3625 -25.3125,-25.3125 l 0,-39.375 -14.0625,0 0,39.375 c 0,21.7125 17.6625,39.375 39.375,39.375 21.7125,0 39.375,-17.6625 39.375,-39.375 l 0,-39.375 -14.0625,0 z"
         style="font-style:normal;font-variant:normal;font-weight:normal;font-stretch:normal;font-size:112.5px;line-height:100%;font-family:Azonix;-inkscape-font-specification:Azonix;text-align:center;letter-spacing:50px;text-anchor:middle;fill:#ffffff;fill-opacity:1;stroke:#ffffff;stroke-width:5;stroke-miterlimit:4;stroke-dasharray:none;stroke-opacity:1"
         id="path4175" />
      <path
         d="m 1656.3467,42.280137 0,-0.45 c 0,-11.7 -9.5625,-21.2625 -21.2625,-21.2625 l -31.95,0 c -11.7,0 -21.15,9.5625 -21.15,21.2625 l 0,0.45 c 0,4.5 1.35,8.6625 3.7125,12.0375 0.7875,1.2375 1.6875,2.3625 2.7,3.375 3.825,3.7125 9,5.9625 14.7375,5.9625 l 28.35,0 c 5.9625,0 10.9125,4.8375 10.9125,10.8 0,5.9625 -4.95,10.8 -10.9125,10.8 l -24.6375,0 c -5.9625,0 -10.8,-4.8375 -10.8,-10.8 l -14.0625,0 c 0,13.725 11.1375,24.8625 24.8625,24.8625 l 24.6375,0 c 13.725,0 24.8625,-11.1375 24.8625,-24.8625 0,-5.9625 -2.1375,-11.475 -5.625,-15.75 -0.3375,-0.3375 -0.5625,-0.675 -0.9,-1.0125 -4.5,-4.95 -11.025,-8.1 -18.3375,-8.1 l -28.35,0 c -3.9375,0 -7.2,-3.2625 -7.2,-7.2 l 0,-0.45 c 0,-3.9375 3.2625,-7.2 7.2,-7.2 l 31.95,0 c 3.9375,0 7.2,3.2625 7.2,7.2 l 0,0.45 14.0625,-0.1125 z"
         style="font-style:normal;font-variant:normal;font-weight:normal;font-stretch:normal;font-size:112.5px;line-height:100%;font-family:Azonix;-inkscape-font-specification:Azonix;text-align:center;letter-spacing:50px;text-anchor:middle;fill:#ffffff;fill-opacity:1;stroke:#ffffff;stroke-width:5;stroke-miterlimit:4;stroke-dasharray:none;stroke-opacity:1"
         id="path4177" />
    </g>
  </g>
</svg>
