<?xml version="1.0" encoding="UTF-8" standalone="no"?>
<svg
   xmlns:dc="http://purl.org/dc/elements/1.1/"
   xmlns:cc="http://creativecommons.org/ns#"
   xmlns:rdf="http://www.w3.org/1999/02/22-rdf-syntax-ns#"
   xmlns:svg="http://www.w3.org/2000/svg"
   xmlns="http://www.w3.org/2000/svg"
   xmlns:sodipodi="http://sodipodi.sourceforge.net/DTD/sodipodi-0.dtd"
   xmlns:inkscape="http://www.inkscape.org/namespaces/inkscape"
   width="39.485229mm"
   height="45.155434mm"
   version="1.1"
   viewBox="0 0 139.90829 159.99957"
   id="svg2"
   inkscape:version="0.91 r13725"
   sodipodi:docname="core republic.svg"
   style="shape-rendering:crispEdges"
   inkscape:export-filename="D:\Pictures\stellar invictus\logos\core republic.png"
   inkscape:export-xdpi="249.75067"
   inkscape:export-ydpi="249.75067">
  <metadata
     id="metadata28">
    <rdf:RDF>
      <cc:Work
         rdf:about="">
        <dc:format>image/svg+xml</dc:format>
        <dc:type
           rdf:resource="http://purl.org/dc/dcmitype/StillImage" />
        <dc:title />
      </cc:Work>
    </rdf:RDF>
  </metadata>
  <defs
     id="defs26" />
  <sodipodi:namedview
     pagecolor="#ffffff"
     bordercolor="#666666"
     borderopacity="1"
     objecttolerance="10"
     gridtolerance="10"
     guidetolerance="10"
     inkscape:pageopacity="0"
     inkscape:pageshadow="2"
     inkscape:window-width="1920"
     inkscape:window-height="1017"
     id="namedview24"
     showgrid="false"
     fit-margin-top="0"
     fit-margin-left="0"
     fit-margin-right="0"
     fit-margin-bottom="0"
     inkscape:zoom="2.8284271"
     inkscape:cx="-25.964286"
     inkscape:cy="97.200074"
     inkscape:window-x="-8"
     inkscape:window-y="-8"
     inkscape:window-maximized="1"
     inkscape:current-layer="svg2" />
  <g
     id="g4165"
     transform="translate(-47.593854,-55.72472)">
    <path
       d="m 67.841,107.03 0,57.393 49.704,28.696 0,-57.393 -49.704,-28.696 z"
       id="path18"
       inkscape:connector-curvature="0"
       style="stroke-width:0" />
    <path
       d="m 167.251,107.03 -49.704,28.696 0,57.393 49.704,-28.696 0,-57.393 z"
       id="path20"
       inkscape:connector-curvature="0"
       style="fill:#999999;stroke-width:0" />
    <path
       d="m 117.551,78.33 -49.704,28.696 49.704,28.696 49.704,-28.696 -49.704,-28.696 z"
       id="path22"
       inkscape:connector-curvature="0"
       style="fill:#333333;stroke-width:0" />
  </g>
  <g
     transform="translate(-47.593854,-55.72472)"
     id="g4180"
     style="fill:#ffad22;fill-opacity:0.35465118">
    <path
       id="path4186"
       style="fill:#ffad22;stroke-width:0;stroke:none;fill-opacity:0.35465118"
       d="m 117.551,78.33 -49.704,28.696 49.704,28.696 49.704,-28.696 -49.704,-28.696 z m 49.7,28.7 -49.704,28.696 0,57.393 49.704,-28.696 0,-57.393 z m -99.41,0 0,57.393 49.704,28.696 0,-57.393 -49.704,-28.696 z" />
  </g>
  <path
     inkscape:connector-curvature="0"
     d="M 69.958319,4.9999227 5.00784,42.498283 69.958319,79.99666 134.90879,42.498283 69.958319,4.9999227 Z M 134.90357,42.503513 69.953089,80.00189 l 0,74.99804 64.950481,-37.49837 0,-74.998047 z m -129.90357,0 0,74.998047 64.950479,37.49837 0,-74.99804 L 5,42.503513 Z"
     style="fill:none;fill-opacity:0.35465115;stroke:#231b0f;stroke-width:10;stroke-linecap:butt;stroke-linejoin:round;stroke-miterlimit:4;stroke-dasharray:none;stroke-opacity:1"
     id="path4176" />
</svg>
