<?xml version="1.0" encoding="UTF-8" standalone="no"?>
<!-- Created with Inkscape (http://www.inkscape.org/) -->

<svg
   xmlns:dc="http://purl.org/dc/elements/1.1/"
   xmlns:cc="http://creativecommons.org/ns#"
   xmlns:rdf="http://www.w3.org/1999/02/22-rdf-syntax-ns#"
   xmlns:svg="http://www.w3.org/2000/svg"
   xmlns="http://www.w3.org/2000/svg"
   xmlns:sodipodi="http://sodipodi.sourceforge.net/DTD/sodipodi-0.dtd"
   xmlns:inkscape="http://www.inkscape.org/namespaces/inkscape"
   width="226.30118mm"
   height="233.17218mm"
   viewBox="0 0 801.85456 826.20064"
   id="svg2"
   version="1.1"
   inkscape:version="0.91 r13725"
   sodipodi:docname="hc.svg">
  <defs
     id="defs4" />
  <sodipodi:namedview
     id="base"
     pagecolor="#ffffff"
     bordercolor="#666666"
     borderopacity="1.0"
     inkscape:pageopacity="0.0"
     inkscape:pageshadow="2"
     inkscape:zoom="0.175"
     inkscape:cx="689.66179"
     inkscape:cy="536.88305"
     inkscape:document-units="px"
     inkscape:current-layer="layer1"
     showgrid="false"
     fit-margin-top="0"
     fit-margin-left="0"
     fit-margin-right="0"
     fit-margin-bottom="0"
     inkscape:window-width="1920"
     inkscape:window-height="1017"
     inkscape:window-x="-8"
     inkscape:window-y="-8"
     inkscape:window-maximized="1" />
  <metadata
     id="metadata7">
    <rdf:RDF>
      <cc:Work
         rdf:about="">
        <dc:format>image/svg+xml</dc:format>
        <dc:type
           rdf:resource="http://purl.org/dc/dcmitype/StillImage" />
        <dc:title></dc:title>
      </cc:Work>
    </rdf:RDF>
  </metadata>
  <g
     inkscape:label="Layer 1"
     inkscape:groupmode="layer"
     id="layer1"
     transform="translate(292.53057,-10.87854)">
    <path
       style="fill:#60a2c1;fill-opacity:1"
       d="m 236.93834,486.27851 -41.51401,-0.0783 0.0439,-75.73636 0.0438,-75.73667 c 35.99362,1.19146 67.29577,4.26038 82.34265,44.46448 4.59623,11.19366 2.89046,107.00855 2.89046,107.00855 0,0 -43.8068,0.0783 -43.80682,0.0783 z"
       id="path3355"
       inkscape:connector-curvature="0"
       sodipodi:nodetypes="cccccccc" />
    <path
       style="fill:#60a2c1;fill-opacity:1"
       d="M 270.34969,349.25458 C 240.97071,316.82237 247.72139,325.0546 -4.8074111,324.48053 -155.82267,324.13724 -238.90831,322.426 -247.75979,319.47665 c -26.68625,-8.89194 -41.60496,-31.41744 -43.76951,-66.08676 l -1.00127,-16.03741 236.608404,-0.19656 c 275.871926,-0.22919 266.966326,-6.73341 305.213506,31.36706 17.42734,19.22577 31.46701,54.66108 31.40162,80.17263 l -0.24714,11.70434 c 0,0 -6.73075,-7.43024 -10.09613,-11.14537 z"
       id="path3353"
       inkscape:connector-curvature="0"
       sodipodi:nodetypes="sssscscccs" />
    <path
       inkscape:connector-curvature="0"
       style="fill:#60a2c1;fill-opacity:1"
       d="M 7.8166035,484.77171 C -28.90959,481.43407 -52.212923,466.15239 -60.629341,439.88676 c -2.994677,-9.34568 -4.560209,-80.33677 -2.704177,-105.16684 l 86.329821,0.41101 -0.09336,75.50168 -0.09339,75.50163 z"
       id="path3351" />
    <path
       inkscape:connector-curvature="0"
       style="fill:#60a2c1;fill-opacity:1"
       d="m -20.951607,226.43759 -43.861933,-0.0748 0.263801,-106.49784 c 0.145091,-58.573818 1.447009,-108.906789 1.447009,-108.906789 0,0 29.504851,-1.0212458 43.55251,4.251218 6.925234,2.599226 16.9767283,9.069182 22.3366613,14.377652 C 20.101683,46.736175 23.067621,64.222805 22.985767,148.68073 l -0.07543,77.83162 z"
       id="path3347" />
    <g
       id="g4281"
       style="fill:#7d9967;fill-opacity:1">
      <path
         sodipodi:nodetypes="sccssssscs"
         inkscape:connector-curvature="0"
         id="path3357"
         d="M 273.42948,584.018 C 56.277683,583.65762 36.80882,583.05007 16.385809,575.99656 c -52.512246,-20.6176 -76.01038,-59.70427 -81.169912,-118.8815 l 10.085174,12.22932 c 8.645109,10.48308 13.116131,13.2605 31.311318,19.45078 19.1295152,6.50814 43.719839,7.26056 248.955261,7.61767 149.60944,0.26032 232.14085,1.92551 240.58977,4.85428 26.41657,9.15711 42.79127,35.07094 42.40984,67.11572 l -0.19075,16.02508 z"
         style="fill:#7d9967;fill-opacity:1" />
      <path
         sodipodi:nodetypes="cscsscc"
         inkscape:connector-curvature="0"
         id="path3357-3"
         d="m 195.25301,717.28631 10.08517,12.22932 c 14.99359,18.18129 38.47328,26.47514 77.02561,28.02256 l 178.43822,0 c 27.95869,0 48.90677,31.47121 48.51665,63.51589 l -0.19075,16.02508 C 267.41434,834.19873 212.94069,857.00373 195.25301,717.28631 Z"
         style="fill:#7d9967;fill-opacity:1" />
      <path
         sodipodi:nodetypes="ssccccs"
         id="path3351-0"
         d="m 267.85417,744.94296 c -36.72625,-3.33765 -61.13573,-18.61935 -69.55216,-44.88502 -2.99469,-9.34569 -2.02553,-77.83689 -1.59807,-105.167 l 86.32996,0.41101 -0.0934,75.50179 -0.0934,75.50175 z"
         style="fill:#7d9967;fill-opacity:1"
         inkscape:connector-curvature="0" />
    </g>
  </g>
</svg>
